{
  "accessors": [
    {
      "bufferView": 2,
      "componentType": 5126,
      "count": 72,
      "max": [
        0.08017108589410782,
        0.08017108589410782,
        0.19427111744880676
      ],
      "min": [
        -0.08017108589410782,
        -0.08017108589410782,
        -0.5087728500366211
      ],
      "type": "VEC3"
    },
    {
      "bufferView": 2,
      "byteOffset": 864,
      "componentType": 5126,
      "count": 72,
      "max": [
        0.9228633642196655,
        0.9228633046150208,
        -0.04688991233706474
      ],
      "min": [
        -0.9228633642196655,
        -0.9228633046150208,
        -1.0
      ],
      "type": "VEC3"
    },
    {
      "bufferView": 1,
      "componentType": 5126,
      "count": 72,
      "max": [
        0.8535380363464355,
        0.9303065538406372
      ],
      "min": [
        -3.503309864427706e-09,
        -3.358961775390412e-09
      ],
      "type": "VEC2"
    },
    {
      "bufferView": 0,
      "componentType": 5125,
      "count": 114,
      "type": "SCALAR"
    },
    {
      "bufferView": 2,
      "byteOffset": 1728,
      "componentType": 5126,
      "count": 204,
      "max": [
        0.14490455389022827,
        0.14490455389022827,
        0.38976436853408813
      ],
      "min": [
        -0.14490455389022827,
        -0.14490455389022827,
        -0.32764315605163574
      ],
      "type": "VEC3"
    },
    {
      "bufferView": 2,
      "byteOffset": 4176,
      "componentType": 5126,
      "count": 204,
      "max": [
        0.9223834276199341,
        0.9223833680152893,
        1.0
      ],
      "min": [
        -0.9223833680152893,
        -0.9223833680152893,
        -1.0
      ],
      "type": "VEC3"
    },
    {
      "bufferView": 1,
      "byteOffset": 576,
      "componentType": 5126,
      "count": 204,
      "max": [
        0.9682291746139526,
        1.0
      ],
      "min": [
        -2.6653420803768313e-08,
        -1.180855635496414e-09
      ],
      "type": "VEC2"
    },
    {
      "bufferView": 0,
      "byteOffset": 456,
      "componentType": 5125,
      "count": 354,
      "type": "SCALAR"
    },
    {
      "bufferView": 2,
      "byteOffset": 6624,
      "componentType": 5126,
      "count": 864,
      "max": [
        0.07373927533626556,
        0.07057636231184006,
        0.3659455478191376
      ],
      "min": [
        -0.06789859384298325,
        -0.07102159410715103,
        -0.07248286157846451
      ],
      "type": "VEC3"
    },
    {
      "bufferView": 2,
      "byteOffset": 16992,
      "componentType": 5126,
      "count": 864,
      "max": [
        0.994563102722168,
        0.9900076985359192,
        0.6695303916931152
      ],
      "min": [
        -0.9971598982810974,
        -0.9905548095703125,
        -0.9861975908279419
      ],
      "type": "VEC3"
    },
    {
      "bufferView": 0,
      "byteOffset": 1872,
      "componentType": 5125,
      "count": 1296,
      "type": "SCALAR"
    },
    {
      "bufferView": 2,
      "byteOffset": 27360,
      "componentType": 5126,
      "count": 312,
      "max": [
        0.191920205950737,
        0.1919201910495758,
        0.3447778820991516
      ],
      "min": [
        -0.1919201761484146,
        -0.1919201910495758,
        -0.5830458998680115
      ],
      "type": "VEC3"
    },
    {
      "bufferView": 2,
      "byteOffset": 31104,
      "componentType": 5126,
      "count": 312,
      "max": [
        0.9232164621353149,
        0.9228633642196655,
        1.0
      ],
      "min": [
        -0.9232164621353149,
        -0.9231002330780029,
        -1.0
      ],
      "type": "VEC3"
    },
    {
      "bufferView": 1,
      "byteOffset": 2208,
      "componentType": 5126,
      "count": 312,
      "max": [
        0.9376586675643921,
        0.9999999403953552
      ],
      "min": [
        7.322674688836628e-10,
        -1.679636874030166e-08
      ],
      "type": "VEC2"
    },
    {
      "bufferView": 0,
      "byteOffset": 7056,
      "componentType": 5125,
      "count": 564,
      "type": "SCALAR"
    },
    {
      "bufferView": 2,
      "byteOffset": 34848,
      "componentType": 5126,
      "count": 64,
      "max": [
        0.09249289333820343,
        0.09249289333820343,
        0.0875592976808548
      ],
      "min": [
        -0.09249289333820343,
        -0.09249289333820343,
        -0.4019162058830261
      ],
      "type": "VEC3"
    },
    {
      "bufferView": 2,
      "byteOffset": 35616,
      "componentType": 5126,
      "count": 64,
      "max": [
        0.9238794445991516,
        0.9238795638084412,
        0.0
      ],
      "min": [
        -0.9238794445991516,
        -0.9238795638084412,
        -0.054376374930143356
      ],
      "type": "VEC3"
    },
    {
      "bufferView": 1,
      "byteOffset": 4704,
      "componentType": 5126,
      "count": 64,
      "max": [
        0.9992434978485107,
        0.9959028363227844
      ],
      "min": [
        0.7069869041442871,
        -5.78968317732631e-10
      ],
      "type": "VEC2"
    },
    {
      "bufferView": 0,
      "byteOffset": 9312,
      "componentType": 5125,
      "count": 96,
      "type": "SCALAR"
    },
    {
      "bufferView": 2,
      "byteOffset": 36384,
      "componentType": 5126,
      "count": 864,
      "max": [
        0.08491072803735733,
        0.08419915288686752,
        0.4078768789768219
      ],
      "min": [
        -0.0855192095041275,
        -0.08419916033744812,
        -0.07762450724840164
      ],
      "type": "VEC3"
    },
    {
      "bufferView": 2,
      "byteOffset": 46752,
      "componentType": 5126,
      "count": 864,
      "max": [
        0.9866819381713867,
        0.988935649394989,
        0.8062906861305237
      ],
      "min": [
        -0.9935137033462524,
        -0.9941309094429016,
        -0.9901291728019714
      ],
      "type": "VEC3"
    },
    {
      "bufferView": 0,
      "byteOffset": 9696,
      "componentType": 5125,
      "count": 1296,
      "type": "SCALAR"
    }
  ],
  "asset": {
    "extras": {
      "author": "CypherPoet (https://sketchfab.com/CypherPoet)",
      "license": "CC-BY-4.0 (http://creativecommons.org/licenses/by/4.0/)",
      "source": "https://sketchfab.com/3d-models/low-poly-torch-pair-with-extra-sharp-flames-1ade73a985ec4865841759dd32dbdf45",
      "title": "Low Poly Torch pair with… extra-sharp flames 🔥"
    },
    "generator": "Sketchfab-15.87.0",
    "version": "2.0"
  },
  "bufferViews": [
    {
      "buffer": 0,
      "byteLength": 14880,
      "name": "floatBufferViews",
      "target": 34963
    },
    {
      "buffer": 0,
      "byteLength": 5216,
      "byteOffset": 14880,
      "byteStride": 8,
      "name": "floatBufferViews",
      "target": 34962
    },
    {
      "buffer": 0,
      "byteLength": 57120,
      "byteOffset": 20096,
      "byteStride": 12,
      "name": "floatBufferViews",
      "target": 34962
    }
  ],
  "buffers": [
    {
      "byteLength": 77216,
      "uri": "scene.bin"
    }
  ],
  "extensionsUsed": [
    "KHR_materials_emissive_strength"
  ],
  "materials": [
    {
      "doubleSided": true,
      "name": "Torch__Base_Wood",
      "pbrMetallicRoughness": {
        "baseColorFactor": [
          0.046559472231579496,
          0.008225993402546997,
          0.008225993402546997,
          1.0
        ],
        "metallicFactor": 0.0,
        "roughnessFactor": 0.8211145618000169
      }
    },
    {
      "doubleSided": true,
      "name": "Torch__Handling_Grip",
      "pbrMetallicRoughness": {
        "baseColorFactor": [
          0.04489504918001053,
          0.04489504918001053,
          0.04489504918001053,
          1.0
        ],
        "metallicFactor": 0.0,
        "roughnessFactor": 0.8211145618000169
      }
    },
    {
      "doubleSided": true,
      "emissiveFactor": [
        1.0,
        0.15964599173179755,
        0.025191469456802472
      ],
      "extensions": {
        "KHR_materials_emissive_strength": {
          "emissiveStrength": 3.0933427606636514
        }
      },
      "name": "Flame",
      "pbrMetallicRoughness": {
        "baseColorFactor": [
          0.0,
          0.0,
          0.0,
          1.0
        ],
        "metallicFactor": 0.0
      }
    }
  ],
  "meshes": [
    {
      "name": "Torch 1_Torch / Base Wood_0",
      "primitives": [
        {
          "attributes": {
            "NORMAL": 1,
            "POSITION": 0,
            "TEXCOORD_0": 2
          },
          "indices": 3,
          "material": 0,
          "mode": 4
        }
      ]
    },
    {
      "name": "Torch 1_Torch / Handling Grip_0",
      "primitives": [
        {
          "attributes": {
            "NORMAL": 5,
            "POSITION": 4,
            "TEXCOORD_0": 6
          },
          "indices": 7,
          "material": 1,
          "mode": 4
        }
      ]
    },
    {
      "name": "Torch 1 / Flame_Flame_0",
      "primitives": [
        {
          "attributes": {
            "NORMAL": 9,
            "POSITION": 8
          },
          "indices": 10,
          "material": 2,
          "mode": 4
        }
      ]
    },
    {
      "name": "Torch 2_Torch / Base Wood_0",
      "primitives": [
        {
          "attributes": {
            "NORMAL": 12,
            "POSITION": 11,
            "TEXCOORD_0": 13
          },
          "indices": 14,
          "material": 0,
          "mode": 4
        }
      ]
    },
    {
      "name": "Torch 2_Torch / Handling Grip_0",
      "primitives": [
        {
          "attributes": {
            "NORMAL": 16,
            "POSITION": 15,
            "TEXCOORD_0": 17
          },
          "indices": 18,
          "material": 1,
          "mode": 4
        }
      ]
    },
    {
      "name": "Torch 2 / Flame_Flame_0",
      "primitives": [
        {
          "attributes": {
            "NORMAL": 20,
            "POSITION": 19
          },
          "indices": 21,
          "material": 2,
          "mode": 4
        }
      ]
    }
  ],
  "nodes": [
    {
      "children": [
        1
      ],
      "matrix": [
        1.0,
        0.0,
        0.0,
        0.0,
        0.0,
        2.220446049250313e-16,
        -1.0,
        0.0,
        0.0,
        1.0,
        2.220446049250313e-16,
        0.0,
        0.0,
        0.0,
        0.0,
        1.0
      ],
      "name": "Sketchfab_model"
    },
    {
      "children": [
        2
      ],
      "matrix": [
        0.009999999776482582,
        0.0,
        0.0,
        0.0,
        0.0,
        0.0,
        0.009999999776482582,
        0.0,
        0.0,
        -0.009999999776482582,
        0.0,
        0.0,
        0.0,
        0.0,
        0.0,
        1.0
      ],
      "name": "30eddce55a864447ad7e3324af9b6dc4.fbx"
    },
    {
      "children": [
        3,
        6,
        9,
        12,
        15,
        17,
        22
      ],
      "name": "RootNode"
    },
    {
      "children": [
        4
      ],
      "matrix": [
        33.30913450470836,
        1.6618100423526627e-06,
        94.289456242717,
        0.0,
        -42.813688535471506,
        89.09677708553238,
        15.124562372465098,
        0.0,
        -84.00887280176052,
        -45.40665840569231,
        29.677368294465683,
        0.0,
        -173.84326171875,
        361.7740783691406,
        61.41270446777344,
        1.0
      ],
      "name": "Key Light"
    },
    {
      "children": [
        5
      ],
      "matrix": [
        1.0,
        0.0,
        0.0,
        0.0,
        0.0,
        2.220446049250313e-16,
        1.0,
        0.0,
        0.0,
        -1.0,
        2.220446049250313e-16,
        0.0,
        0.0,
        0.0,
        0.0,
        1.0
      ],
      "name": "Object_4"
    },
    {
      "name": "Object_5"
    },
    {
      "children": [
        7
      ],
      "matrix": [
        58.48751311774295,
        4.948247644410148,
        80.96125078500572,
        0.0,
        80.8135039740307,
        -12.114926958597925,
        -57.64033003120407,
        0.0,
        6.956209593654761,
        99.14001164489375,
        -11.08457095518956,
        0.0,
        212.09996032714844,
        99.79365539550781,
        -157.70895385742188,
        1.0
      ],
      "name": "Rim Light 1"
    },
    {
      "children": [
        8
      ],
      "matrix": [
        1.0,
        0.0,
        0.0,
        0.0,
        0.0,
        2.220446049250313e-16,
        1.0,
        0.0,
        0.0,
        -1.0,
        2.220446049250313e-16,
        0.0,
        0.0,
        0.0,
        0.0,
        1.0
      ],
      "name": "Object_7"
    },
    {
      "name": "Object_8"
    },
    {
      "children": [
        10
      ],
      "matrix": [
        39.69057972423109,
        -7.780918908851392e-06,
        -91.78594340656613,
        0.0,
        86.50506573127237,
        33.43040774623113,
        37.40699087908494,
        0.0,
        30.684405200828667,
        -94.24652064189866,
        13.268726332571656,
        0.0,
        376.0706787109375,
        145.33486938476563,
        162.62254333496094,
        1.0
      ],
      "name": "Fill Light 1"
    },
    {
      "children": [
        11
      ],
      "matrix": [
        1.0,
        0.0,
        0.0,
        0.0,
        0.0,
        2.220446049250313e-16,
        1.0,
        0.0,
        0.0,
        -1.0,
        2.220446049250313e-16,
        0.0,
        0.0,
        0.0,
        0.0,
        1.0
      ],
      "name": "Object_10"
    },
    {
      "name": "Object_11"
    },
    {
      "children": [
        13
      ],
      "matrix": [
        96.73358259604679,
        1.2353328012098178e-06,
        -25.349862406189825,
        0.0,
        23.927130688503677,
        33.029954433118114,
        91.30452372714275,
        0.0,
        8.373047213098756,
        -94.38760997719602,
        31.95105064440136,
        0.0,
        76.349609375,
        105.39595794677734,
        291.3455810546875,
        1.0
      ],
      "name": "Fill Light 2"
    },
    {
      "children": [
        14
      ],
      "matrix": [
        1.0,
        0.0,
        0.0,
        0.0,
        0.0,
        2.220446049250313e-16,
        1.0,
        0.0,
        0.0,
        -1.0,
        2.220446049250313e-16,
        0.0,
        0.0,
        0.0,
        0.0,
        1.0
      ],
      "name": "Object_13"
    },
    {
      "name": "Object_14"
    },
    {
      "children": [
        16
      ],
      "matrix": [
        -24.83270496858603,
        -54.87313773262566,
        -79.82655304519609,
        0.0,
        -16.29956320146551,
        83.59989119089433,
        -52.396426252847675,
        0.0,
        95.48643820673372,
        -7.048027239235054e-05,
        -29.704184767601472,
        0.0,
        147.61660766601563,
        377.565673828125,
        457.6393127441406,
        1.0
      ],
      "name": "Camera / Main"
    },
    {
      "name": "Object_16"
    },
    {
      "children": [
        18,
        19,
        20
      ],
      "matrix": [
        100.0,
        0.0,
        0.0,
        0.0,
        -0.0,
        -1.629206793918314e-05,
        -99.99999999999868,
        0.0,
        0.0,
        99.99999999999868,
        -1.629206793918314e-05,
        0.0,
        -32.94710922241211,
        50.87728500366211,
        3.259629011154175e-08,
        1.0
      ],
      "name": "Torch 1"
    },
    {
      "mesh": 0,
      "name": "Torch 1_Torch / Base Wood_0"
    },
    {
      "mesh": 1,
      "name": "Torch 1_Torch / Handling Grip_0"
    },
    {
      "children": [
        21
      ],
      "matrix": [
        1.0,
        0.0,
        0.0,
        0.0,
        0.0,
        1.0,
        -2.646977960169688e-23,
        0.0,
        0.0,
        2.646977960169688e-23,
        1.0,
        0.0,
        -0.007961094379425049,
        3.2596289556430236e-10,
        0.3616645336151123,
        1.0
      ],
      "name": "Torch 1 / Flame"
    },
    {
      "mesh": 2,
      "name": "Torch 1 / Flame_Flame_0"
    },
    {
      "children": [
        23,
        24,
        25
      ],
      "matrix": [
        100.0,
        0.0,
        0.0,
        0.0,
        0.0,
        -1.629206793918314e-05,
        -99.99999999999868,
        0.0,
        0.0,
        99.99999999999868,
        -1.629206793918314e-05,
        0.0,
        32.729217529296875,
        58.304588317871094,
        2.4835269840650653e-08,
        1.0
      ],
      "name": "Torch 2"
    },
    {
      "mesh": 3,
      "name": "Torch 2_Torch / Base Wood_0"
    },
    {
      "mesh": 4,
      "name": "Torch 2_Torch / Handling Grip_0"
    },
    {
      "children": [
        26
      ],
      "matrix": [
        1.0,
        0.0,
        0.0,
        0.0,
        0.0,
        1.0,
        -2.646977960169688e-23,
        0.0,
        0.0,
        2.646977960169688e-23,
        1.0,
        0.0,
        0.0,
        2.4835269951672956e-10,
        0.3276580572128296,
        1.0
      ],
      "name": "Torch 2 / Flame"
    },
    {
      "mesh": 5,
      "name": "Torch 2 / Flame_Flame_0"
    }
  ],
  "scene": 0,
  "scenes": [
    {
      "name": "Sketchfab_Scene",
      "nodes": [
        0
      ]
    }
  ]
}
